<svg xmlns="http://www.w3.org/2000/svg" xmlns:xlink="http://www.w3.org/1999/xlink" width="500" zoomAndPan="magnify" viewBox="0 0 375 374.999991" height="500" preserveAspectRatio="xMidYMid meet" version="1.0"><defs><g/><clipPath id="830d5ec906"><path d="M 131.015625 78 L 234.515625 78 L 234.515625 194 L 131.015625 194 Z M 131.015625 78 " clip-rule="nonzero"/></clipPath></defs><g clip-path="url(#830d5ec906)"><path fill="#ff3131" d="M 134.140625 193.414062 C 132.988281 194.445312 131.015625 193.714844 131.015625 192.261719 L 131.015625 79.648438 C 131.015625 78.660156 131.925781 78.007812 132.871094 78.015625 C 133.320312 78.015625 133.773438 78.164062 134.140625 78.496094 L 155.832031 97.8125 L 181.453125 120.636719 C 181.476562 120.65625 181.496094 120.675781 181.519531 120.691406 L 181.523438 120.695312 L 181.96875 121.097656 L 208.859375 145.050781 C 208.960938 145.140625 209.070312 145.21875 209.1875 145.28125 C 210.238281 145.875 211.671875 145.347656 211.941406 144.265625 C 211.96875 144.148438 211.984375 144.023438 211.984375 143.894531 L 211.984375 128.015625 C 211.984375 126.5625 210.015625 125.832031 208.859375 126.863281 L 207.710938 127.886719 L 205.351562 129.988281 L 189.511719 115.761719 L 191.804688 113.71875 L 231.351562 78.496094 C 232.503906 77.46875 234.476562 78.195312 234.476562 79.648438 L 234.476562 192.261719 C 234.476562 193.25 233.566406 193.902344 232.621094 193.894531 C 232.175781 193.894531 231.722656 193.746094 231.351562 193.414062 L 209.664062 174.097656 L 184.039062 151.277344 C 184.019531 151.253906 183.996094 151.234375 183.972656 151.21875 L 183.972656 151.214844 L 183.523438 150.8125 L 156.632812 126.863281 C 156.53125 126.769531 156.421875 126.691406 156.308594 126.628906 C 155.257812 126.035156 153.824219 126.5625 153.554688 127.644531 C 153.523438 127.761719 153.507812 127.886719 153.507812 128.015625 L 153.507812 143.894531 C 153.507812 145.347656 155.480469 146.078125 156.632812 145.050781 L 157.78125 144.027344 L 160.140625 141.925781 L 175.980469 156.148438 L 173.6875 158.191406 L 134.140625 193.414062 " fill-opacity="1" fill-rule="nonzero"/></g><g fill="#0f0147" fill-opacity="1"><g transform="translate(65.774044, 252.356381)"><g><path d="M 3.40625 0 L 3.40625 -33.03125 L 11.765625 -33.03125 L 11.765625 0 Z M 3.40625 0 "/></g></g></g><g fill="#0f0147" fill-opacity="1"><g transform="translate(85.742019, 252.356381)"><g><path d="M 23.046875 0 L 11.609375 -18.859375 L 11.375 -18.859375 L 11.375 0 L 3.40625 0 L 3.40625 -33.03125 L 12 -33.03125 L 22.609375 -15.890625 L 22.84375 -15.890625 L 22.84375 -33.03125 L 30.859375 -33.03125 L 30.859375 0 Z M 23.046875 0 "/></g></g></g><g fill="#0f0147" fill-opacity="1"><g transform="translate(124.81396, 252.356381)"><g><path d="M 3.5 0 L 3.5 -33.03125 L 25.96875 -33.03125 L 25.96875 -26.25 L 11.859375 -26.25 L 11.859375 -19.015625 L 24.140625 -19.015625 L 24.140625 -12.234375 L 11.859375 -12.234375 L 11.859375 0 Z M 3.5 0 "/></g></g></g><g fill="#0f0147" fill-opacity="1"><g transform="translate(157.309908, 252.356381)"><g><path d="M 3.40625 0 L 3.40625 -33.03125 L 11.765625 -33.03125 L 11.765625 0 Z M 3.40625 0 "/></g></g></g><g fill="#0f0147" fill-opacity="1"><g transform="translate(177.277884, 252.356381)"><g><path d="M 23.046875 0 L 11.609375 -18.859375 L 11.375 -18.859375 L 11.375 0 L 3.40625 0 L 3.40625 -33.03125 L 12 -33.03125 L 22.609375 -15.890625 L 22.84375 -15.890625 L 22.84375 -33.03125 L 30.859375 -33.03125 L 30.859375 0 Z M 23.046875 0 "/></g></g></g><g fill="#0f0147" fill-opacity="1"><g transform="translate(216.349831, 252.356381)"><g><path d="M 3.40625 0 L 3.40625 -33.03125 L 11.765625 -33.03125 L 11.765625 0 Z M 3.40625 0 "/></g></g></g><g fill="#0f0147" fill-opacity="1"><g transform="translate(236.317801, 252.356381)"><g><path d="M 9.890625 0 L 9.890625 -25.921875 L 0.765625 -25.921875 L 0.765625 -33.03125 L 27.40625 -33.03125 L 27.40625 -25.921875 L 18.234375 -25.921875 L 18.234375 0 Z M 9.890625 0 "/></g></g></g><g fill="#0f0147" fill-opacity="1"><g transform="translate(269.245747, 252.356381)"><g><path d="M 11.046875 0 L 11.046875 -11.234375 L 0.046875 -33.03125 L 8.6875 -33.03125 L 15.171875 -19.390625 L 15.5 -19.390625 L 21.9375 -33.03125 L 30.390625 -33.03125 L 19.390625 -11.234375 L 19.390625 0 Z M 11.046875 0 "/></g></g></g><g fill="#ff3131" fill-opacity="1"><g transform="translate(150.017789, 284.006379)"><g><path d="M 13.265625 0 L 13.25 -8.359375 L 9.109375 -1.4375 L 8.0625 -1.4375 L 3.921875 -8.25 L 3.921875 0 L 1.6875 0 L 1.6875 -12.59375 L 3.625 -12.59375 L 8.625 -4.25 L 13.53125 -12.59375 L 15.46875 -12.59375 L 15.484375 0 Z M 13.265625 0 "/></g></g></g><g fill="#ff3131" fill-opacity="1"><g transform="translate(170.80774, 284.006379)"><g><path d="M 9.859375 -2.921875 L 3.5625 -2.921875 L 2.328125 0 L -0.09375 0 L 5.578125 -12.59375 L 7.890625 -12.59375 L 13.578125 0 L 11.125 0 Z M 9.09375 -4.75 L 6.71875 -10.265625 L 4.359375 -4.75 Z M 9.09375 -4.75 "/></g></g></g><g fill="#ff3131" fill-opacity="1"><g transform="translate(187.889702, 284.006379)"><g><path d="M 9.9375 0 L 7.359375 -3.6875 C 7.253906 -3.675781 7.09375 -3.671875 6.875 -3.671875 L 4.03125 -3.671875 L 4.03125 0 L 1.6875 0 L 1.6875 -12.59375 L 6.875 -12.59375 C 7.96875 -12.59375 8.914062 -12.410156 9.71875 -12.046875 C 10.53125 -11.691406 11.148438 -11.175781 11.578125 -10.5 C 12.015625 -9.832031 12.234375 -9.039062 12.234375 -8.125 C 12.234375 -7.175781 12.003906 -6.359375 11.546875 -5.671875 C 11.085938 -4.984375 10.425781 -4.472656 9.5625 -4.140625 L 12.453125 0 Z M 9.875 -8.125 C 9.875 -8.925781 9.609375 -9.539062 9.078125 -9.96875 C 8.554688 -10.40625 7.785156 -10.625 6.765625 -10.625 L 4.03125 -10.625 L 4.03125 -5.59375 L 6.765625 -5.59375 C 7.785156 -5.59375 8.554688 -5.8125 9.078125 -6.25 C 9.609375 -6.6875 9.875 -7.3125 9.875 -8.125 Z M 9.875 -8.125 "/></g></g></g><g fill="#ff3131" fill-opacity="1"><g transform="translate(204.647656, 284.006379)"><g><path d="M 4.25 -10.625 L 0.078125 -10.625 L 0.078125 -12.59375 L 10.765625 -12.59375 L 10.765625 -10.625 L 6.59375 -10.625 L 6.59375 0 L 4.25 0 Z M 4.25 -10.625 "/></g></g></g></svg>