<svg xmlns="http://www.w3.org/2000/svg" xmlns:xlink="http://www.w3.org/1999/xlink" width="500" zoomAndPan="magnify" viewBox="0 0 375 374.999991" height="500" preserveAspectRatio="xMidYMid meet" version="1.0"><defs><g/><clipPath id="0f526afd84"><path d="M 131.015625 78 L 234.515625 78 L 234.515625 194 L 131.015625 194 Z M 131.015625 78 " clip-rule="nonzero"/></clipPath></defs><g clip-path="url(#0f526afd84)"><path fill="#ff3131" d="M 134.140625 193.414062 C 132.988281 194.445312 131.015625 193.714844 131.015625 192.261719 L 131.015625 79.648438 C 131.015625 78.660156 131.925781 78.007812 132.871094 78.015625 C 133.320312 78.015625 133.773438 78.164062 134.140625 78.496094 L 155.832031 97.8125 L 181.453125 120.636719 C 181.476562 120.65625 181.496094 120.675781 181.519531 120.691406 L 181.523438 120.695312 L 181.96875 121.097656 L 208.859375 145.050781 C 208.960938 145.140625 209.070312 145.21875 209.1875 145.28125 C 210.238281 145.875 211.671875 145.347656 211.941406 144.265625 C 211.96875 144.148438 211.984375 144.023438 211.984375 143.894531 L 211.984375 128.015625 C 211.984375 126.5625 210.015625 125.832031 208.859375 126.863281 L 207.710938 127.886719 L 205.351562 129.988281 L 189.511719 115.761719 L 191.804688 113.71875 L 231.351562 78.496094 C 232.503906 77.46875 234.476562 78.195312 234.476562 79.648438 L 234.476562 192.261719 C 234.476562 193.25 233.566406 193.902344 232.621094 193.894531 C 232.175781 193.894531 231.722656 193.746094 231.351562 193.414062 L 209.664062 174.097656 L 184.039062 151.277344 C 184.019531 151.253906 183.996094 151.234375 183.972656 151.21875 L 183.972656 151.214844 L 183.523438 150.8125 L 156.632812 126.863281 C 156.53125 126.769531 156.421875 126.691406 156.308594 126.628906 C 155.257812 126.035156 153.824219 126.5625 153.554688 127.644531 C 153.523438 127.761719 153.507812 127.886719 153.507812 128.015625 L 153.507812 143.894531 C 153.507812 145.347656 155.480469 146.078125 156.632812 145.050781 L 157.78125 144.027344 L 160.140625 141.925781 L 175.980469 156.148438 L 173.6875 158.191406 L 134.140625 193.414062 " fill-opacity="1" fill-rule="nonzero"/></g><g fill="#ffffff" fill-opacity="1"><g transform="translate(65.774044, 252.35635)"><g><path d="M 3.40625 0 L 3.40625 -33.03125 L 11.765625 -33.03125 L 11.765625 0 Z M 3.40625 0 "/></g></g></g><g fill="#ffffff" fill-opacity="1"><g transform="translate(85.742019, 252.35635)"><g><path d="M 23.046875 0 L 11.609375 -18.859375 L 11.375 -18.859375 L 11.375 0 L 3.40625 0 L 3.40625 -33.03125 L 12 -33.03125 L 22.609375 -15.890625 L 22.84375 -15.890625 L 22.84375 -33.03125 L 30.859375 -33.03125 L 30.859375 0 Z M 23.046875 0 "/></g></g></g><g fill="#ffffff" fill-opacity="1"><g transform="translate(124.81396, 252.35635)"><g><path d="M 3.5 0 L 3.5 -33.03125 L 25.96875 -33.03125 L 25.96875 -26.25 L 11.859375 -26.25 L 11.859375 -19.015625 L 24.140625 -19.015625 L 24.140625 -12.234375 L 11.859375 -12.234375 L 11.859375 0 Z M 3.5 0 "/></g></g></g><g fill="#ffffff" fill-opacity="1"><g transform="translate(157.309908, 252.35635)"><g><path d="M 3.40625 0 L 3.40625 -33.03125 L 11.765625 -33.03125 L 11.765625 0 Z M 3.40625 0 "/></g></g></g><g fill="#ffffff" fill-opacity="1"><g transform="translate(177.277884, 252.35635)"><g><path d="M 23.046875 0 L 11.609375 -18.859375 L 11.375 -18.859375 L 11.375 0 L 3.40625 0 L 3.40625 -33.03125 L 12 -33.03125 L 22.609375 -15.890625 L 22.84375 -15.890625 L 22.84375 -33.03125 L 30.859375 -33.03125 L 30.859375 0 Z M 23.046875 0 "/></g></g></g><g fill="#ffffff" fill-opacity="1"><g transform="translate(216.349831, 252.35635)"><g><path d="M 3.40625 0 L 3.40625 -33.03125 L 11.765625 -33.03125 L 11.765625 0 Z M 3.40625 0 "/></g></g></g><g fill="#ffffff" fill-opacity="1"><g transform="translate(236.317801, 252.35635)"><g><path d="M 9.890625 0 L 9.890625 -25.921875 L 0.765625 -25.921875 L 0.765625 -33.03125 L 27.40625 -33.03125 L 27.40625 -25.921875 L 18.234375 -25.921875 L 18.234375 0 Z M 9.890625 0 "/></g></g></g><g fill="#ffffff" fill-opacity="1"><g transform="translate(269.245747, 252.35635)"><g><path d="M 11.046875 0 L 11.046875 -11.234375 L 0.046875 -33.03125 L 8.6875 -33.03125 L 15.171875 -19.390625 L 15.5 -19.390625 L 21.9375 -33.03125 L 30.390625 -33.03125 L 19.390625 -11.234375 L 19.390625 0 Z M 11.046875 0 "/></g></g></g><g fill="#ff3131" fill-opacity="1"><g transform="translate(100.529511, 284.006348)"><g><path d="M 4.25 -10.625 L 0.078125 -10.625 L 0.078125 -12.59375 L 10.765625 -12.59375 L 10.765625 -10.625 L 6.59375 -10.625 L 6.59375 0 L 4.25 0 Z M 4.25 -10.625 "/></g></g></g><g fill="#ff3131" fill-opacity="1"><g transform="translate(114.965474, 284.006348)"><g><path d="M 11.140625 -1.96875 L 11.140625 0 L 1.6875 0 L 1.6875 -12.59375 L 10.890625 -12.59375 L 10.890625 -10.640625 L 4.03125 -10.640625 L 4.03125 -7.359375 L 10.109375 -7.359375 L 10.109375 -5.4375 L 4.03125 -5.4375 L 4.03125 -1.96875 Z M 11.140625 -1.96875 "/></g></g></g><g fill="#ff3131" fill-opacity="1"><g transform="translate(130.625439, 284.006348)"><g><path d="M 7.53125 0.1875 C 6.25 0.1875 5.09375 -0.09375 4.0625 -0.65625 C 3.039062 -1.21875 2.238281 -1.988281 1.65625 -2.96875 C 1.082031 -3.957031 0.796875 -5.066406 0.796875 -6.296875 C 0.796875 -7.535156 1.085938 -8.644531 1.671875 -9.625 C 2.265625 -10.613281 3.070312 -11.382812 4.09375 -11.9375 C 5.125 -12.5 6.273438 -12.78125 7.546875 -12.78125 C 8.578125 -12.78125 9.515625 -12.597656 10.359375 -12.234375 C 11.210938 -11.878906 11.9375 -11.359375 12.53125 -10.671875 L 11.015625 -9.25 C 10.097656 -10.238281 8.976562 -10.734375 7.65625 -10.734375 C 6.789062 -10.734375 6.015625 -10.539062 5.328125 -10.15625 C 4.640625 -9.78125 4.101562 -9.253906 3.71875 -8.578125 C 3.34375 -7.910156 3.15625 -7.148438 3.15625 -6.296875 C 3.15625 -5.441406 3.34375 -4.675781 3.71875 -4 C 4.101562 -3.332031 4.640625 -2.8125 5.328125 -2.4375 C 6.015625 -2.0625 6.789062 -1.875 7.65625 -1.875 C 8.976562 -1.875 10.097656 -2.367188 11.015625 -3.359375 L 12.53125 -1.921875 C 11.9375 -1.242188 11.210938 -0.722656 10.359375 -0.359375 C 9.503906 0.00390625 8.5625 0.1875 7.53125 0.1875 Z M 7.53125 0.1875 "/></g></g></g><g fill="#ff3131" fill-opacity="1"><g transform="translate(147.311402, 284.006348)"><g><path d="M 12.890625 -12.59375 L 12.890625 0 L 10.546875 0 L 10.546875 -5.40625 L 4.03125 -5.40625 L 4.03125 0 L 1.6875 0 L 1.6875 -12.59375 L 4.03125 -12.59375 L 4.03125 -7.390625 L 10.546875 -7.390625 L 10.546875 -12.59375 Z M 12.890625 -12.59375 "/></g></g></g><g fill="#ff3131" fill-opacity="1"><g transform="translate(165.491357, 284.006348)"><g><path d="M 12.890625 -12.59375 L 12.890625 0 L 10.96875 0 L 4.015625 -8.53125 L 4.015625 0 L 1.6875 0 L 1.6875 -12.59375 L 3.625 -12.59375 L 10.5625 -4.0625 L 10.5625 -12.59375 Z M 12.890625 -12.59375 "/></g></g></g><g fill="#ff3131" fill-opacity="1"><g transform="translate(183.671313, 284.006348)"><g><path d="M 7.578125 0.1875 C 6.296875 0.1875 5.140625 -0.09375 4.109375 -0.65625 C 3.078125 -1.21875 2.265625 -1.992188 1.671875 -2.984375 C 1.085938 -3.972656 0.796875 -5.078125 0.796875 -6.296875 C 0.796875 -7.523438 1.085938 -8.632812 1.671875 -9.625 C 2.265625 -10.613281 3.078125 -11.382812 4.109375 -11.9375 C 5.140625 -12.5 6.296875 -12.78125 7.578125 -12.78125 C 8.859375 -12.78125 10.015625 -12.5 11.046875 -11.9375 C 12.078125 -11.382812 12.882812 -10.613281 13.46875 -9.625 C 14.0625 -8.644531 14.359375 -7.535156 14.359375 -6.296875 C 14.359375 -5.066406 14.0625 -3.957031 13.46875 -2.96875 C 12.882812 -1.988281 12.078125 -1.21875 11.046875 -0.65625 C 10.015625 -0.09375 8.859375 0.1875 7.578125 0.1875 Z M 7.578125 -1.875 C 8.421875 -1.875 9.175781 -2.0625 9.84375 -2.4375 C 10.519531 -2.8125 11.046875 -3.335938 11.421875 -4.015625 C 11.804688 -4.703125 12 -5.460938 12 -6.296875 C 12 -7.140625 11.804688 -7.898438 11.421875 -8.578125 C 11.046875 -9.253906 10.519531 -9.78125 9.84375 -10.15625 C 9.175781 -10.539062 8.421875 -10.734375 7.578125 -10.734375 C 6.734375 -10.734375 5.972656 -10.539062 5.296875 -10.15625 C 4.628906 -9.78125 4.101562 -9.253906 3.71875 -8.578125 C 3.34375 -7.898438 3.15625 -7.140625 3.15625 -6.296875 C 3.15625 -5.460938 3.34375 -4.703125 3.71875 -4.015625 C 4.101562 -3.335938 4.628906 -2.8125 5.296875 -2.4375 C 5.972656 -2.0625 6.734375 -1.875 7.578125 -1.875 Z M 7.578125 -1.875 "/></g></g></g><g fill="#ff3131" fill-opacity="1"><g transform="translate(202.427275, 284.006348)"><g><path d="M 1.6875 -12.59375 L 4.03125 -12.59375 L 4.03125 -1.984375 L 10.625 -1.984375 L 10.625 0 L 1.6875 0 Z M 1.6875 -12.59375 "/></g></g></g><g fill="#ff3131" fill-opacity="1"><g transform="translate(216.809247, 284.006348)"><g><path d="M 7.578125 0.1875 C 6.296875 0.1875 5.140625 -0.09375 4.109375 -0.65625 C 3.078125 -1.21875 2.265625 -1.992188 1.671875 -2.984375 C 1.085938 -3.972656 0.796875 -5.078125 0.796875 -6.296875 C 0.796875 -7.523438 1.085938 -8.632812 1.671875 -9.625 C 2.265625 -10.613281 3.078125 -11.382812 4.109375 -11.9375 C 5.140625 -12.5 6.296875 -12.78125 7.578125 -12.78125 C 8.859375 -12.78125 10.015625 -12.5 11.046875 -11.9375 C 12.078125 -11.382812 12.882812 -10.613281 13.46875 -9.625 C 14.0625 -8.644531 14.359375 -7.535156 14.359375 -6.296875 C 14.359375 -5.066406 14.0625 -3.957031 13.46875 -2.96875 C 12.882812 -1.988281 12.078125 -1.21875 11.046875 -0.65625 C 10.015625 -0.09375 8.859375 0.1875 7.578125 0.1875 Z M 7.578125 -1.875 C 8.421875 -1.875 9.175781 -2.0625 9.84375 -2.4375 C 10.519531 -2.8125 11.046875 -3.335938 11.421875 -4.015625 C 11.804688 -4.703125 12 -5.460938 12 -6.296875 C 12 -7.140625 11.804688 -7.898438 11.421875 -8.578125 C 11.046875 -9.253906 10.519531 -9.78125 9.84375 -10.15625 C 9.175781 -10.539062 8.421875 -10.734375 7.578125 -10.734375 C 6.734375 -10.734375 5.972656 -10.539062 5.296875 -10.15625 C 4.628906 -9.78125 4.101562 -9.253906 3.71875 -8.578125 C 3.34375 -7.898438 3.15625 -7.140625 3.15625 -6.296875 C 3.15625 -5.460938 3.34375 -4.703125 3.71875 -4.015625 C 4.101562 -3.335938 4.628906 -2.8125 5.296875 -2.4375 C 5.972656 -2.0625 6.734375 -1.875 7.578125 -1.875 Z M 7.578125 -1.875 "/></g></g></g><g fill="#ff3131" fill-opacity="1"><g transform="translate(235.565208, 284.006348)"><g><path d="M 10.296875 -6.4375 L 12.515625 -6.4375 L 12.515625 -1.421875 C 11.859375 -0.898438 11.097656 -0.5 10.234375 -0.21875 C 9.378906 0.0507812 8.492188 0.1875 7.578125 0.1875 C 6.296875 0.1875 5.140625 -0.09375 4.109375 -0.65625 C 3.078125 -1.21875 2.265625 -1.988281 1.671875 -2.96875 C 1.085938 -3.957031 0.796875 -5.066406 0.796875 -6.296875 C 0.796875 -7.535156 1.085938 -8.644531 1.671875 -9.625 C 2.265625 -10.613281 3.078125 -11.382812 4.109375 -11.9375 C 5.148438 -12.5 6.316406 -12.78125 7.609375 -12.78125 C 8.671875 -12.78125 9.632812 -12.601562 10.5 -12.25 C 11.363281 -11.90625 12.085938 -11.398438 12.671875 -10.734375 L 11.203125 -9.28125 C 10.234375 -10.25 9.070312 -10.734375 7.71875 -10.734375 C 6.832031 -10.734375 6.039062 -10.546875 5.34375 -10.171875 C 4.65625 -9.796875 4.117188 -9.269531 3.734375 -8.59375 C 3.347656 -7.925781 3.15625 -7.160156 3.15625 -6.296875 C 3.15625 -5.460938 3.347656 -4.707031 3.734375 -4.03125 C 4.117188 -3.363281 4.65625 -2.835938 5.34375 -2.453125 C 6.039062 -2.066406 6.828125 -1.875 7.703125 -1.875 C 8.691406 -1.875 9.554688 -2.085938 10.296875 -2.515625 Z M 10.296875 -6.4375 "/></g></g></g><g fill="#ff3131" fill-opacity="1"><g transform="translate(253.061163, 284.006348)"><g><path d="M 7.125 -4.453125 L 7.125 0 L 4.78125 0 L 4.78125 -4.40625 L -0.15625 -12.59375 L 2.34375 -12.59375 L 6.03125 -6.46875 L 9.75 -12.59375 L 12.0625 -12.59375 Z M 7.125 -4.453125 "/></g></g></g></svg>