<svg xmlns="http://www.w3.org/2000/svg" xmlns:xlink="http://www.w3.org/1999/xlink" width="500" zoomAndPan="magnify" viewBox="0 0 375 374.999991" height="500" preserveAspectRatio="xMidYMid meet" version="1.0"><defs><g/><clipPath id="e9ca0aa306"><path d="M 43.125 141.542969 L 124.125 141.542969 L 124.125 233.792969 L 43.125 233.792969 Z M 43.125 141.542969 " clip-rule="nonzero"/></clipPath></defs><g clip-path="url(#e9ca0aa306)"><path fill="#ff3131" d="M 45.261719 232.644531 C 44.355469 233.453125 42.804688 232.882812 42.804688 231.738281 L 42.804688 143.253906 C 42.804688 142.480469 43.519531 141.96875 44.265625 141.972656 C 44.613281 141.972656 44.972656 142.089844 45.261719 142.347656 L 62.300781 157.527344 L 82.433594 175.460938 C 82.453125 175.476562 82.46875 175.492188 82.488281 175.503906 L 82.488281 175.507812 L 82.839844 175.824219 L 103.96875 194.640625 C 104.046875 194.714844 104.136719 194.773438 104.222656 194.824219 C 105.050781 195.292969 106.175781 194.875 106.386719 194.027344 C 106.410156 193.933594 106.421875 193.835938 106.421875 193.734375 L 106.421875 181.257812 C 106.421875 180.117188 104.875 179.542969 103.96875 180.351562 L 103.066406 181.15625 L 101.210938 182.808594 L 88.765625 171.632812 L 90.570312 170.023438 L 121.640625 142.347656 C 122.546875 141.542969 124.097656 142.113281 124.097656 143.253906 L 124.097656 231.738281 C 124.097656 232.515625 123.378906 233.027344 122.636719 233.023438 C 122.285156 233.019531 121.929688 232.902344 121.640625 232.644531 L 104.597656 217.464844 L 84.46875 199.535156 C 84.449219 199.519531 84.433594 199.503906 84.414062 199.488281 L 84.0625 199.171875 L 62.933594 180.351562 C 62.851562 180.28125 62.765625 180.21875 62.675781 180.167969 C 61.851562 179.703125 60.726562 180.117188 60.511719 180.96875 C 60.488281 181.058594 60.476562 181.15625 60.476562 181.257812 L 60.476562 193.734375 C 60.476562 194.878906 62.027344 195.449219 62.933594 194.640625 L 63.835938 193.839844 L 65.6875 192.1875 L 78.136719 203.363281 L 76.332031 204.96875 L 45.261719 232.644531 " fill-opacity="1" fill-rule="nonzero"/></g><g fill="#0f0147" fill-opacity="1"><g transform="translate(142.120366, 190.066676)"><g><path d="M 2.796875 0 L 2.796875 -27.046875 L 9.625 -27.046875 L 9.625 0 Z M 2.796875 0 "/></g></g></g><g fill="#0f0147" fill-opacity="1"><g transform="translate(155.723619, 190.066676)"><g><path d="M 18.875 0 L 9.515625 -15.453125 L 9.3125 -15.453125 L 9.3125 0 L 2.796875 0 L 2.796875 -27.046875 L 9.828125 -27.046875 L 18.515625 -13.015625 L 18.71875 -13.015625 L 18.71875 -27.046875 L 25.28125 -27.046875 L 25.28125 0 Z M 18.875 0 "/></g></g></g><g fill="#0f0147" fill-opacity="1"><g transform="translate(184.974267, 190.066676)"><g><path d="M 2.875 0 L 2.875 -27.046875 L 21.265625 -27.046875 L 21.265625 -21.5 L 9.703125 -21.5 L 9.703125 -15.5625 L 19.78125 -15.5625 L 19.78125 -10.03125 L 9.703125 -10.03125 L 9.703125 0 Z M 2.875 0 "/></g></g></g><g fill="#0f0147" fill-opacity="1"><g transform="translate(208.838747, 190.066676)"><g><path d="M 2.796875 0 L 2.796875 -27.046875 L 9.625 -27.046875 L 9.625 0 Z M 2.796875 0 "/></g></g></g><g fill="#0f0147" fill-opacity="1"><g transform="translate(222.441999, 190.066676)"><g><path d="M 18.875 0 L 9.515625 -15.453125 L 9.3125 -15.453125 L 9.3125 0 L 2.796875 0 L 2.796875 -27.046875 L 9.828125 -27.046875 L 18.515625 -13.015625 L 18.71875 -13.015625 L 18.71875 -27.046875 L 25.28125 -27.046875 L 25.28125 0 Z M 18.875 0 "/></g></g></g><g fill="#0f0147" fill-opacity="1"><g transform="translate(251.692644, 190.066676)"><g><path d="M 2.796875 0 L 2.796875 -27.046875 L 9.625 -27.046875 L 9.625 0 Z M 2.796875 0 "/></g></g></g><g fill="#0f0147" fill-opacity="1"><g transform="translate(265.295896, 190.066676)"><g><path d="M 8.09375 0 L 8.09375 -21.234375 L 0.625 -21.234375 L 0.625 -27.046875 L 22.453125 -27.046875 L 22.453125 -21.234375 L 14.9375 -21.234375 L 14.9375 0 Z M 8.09375 0 "/></g></g></g><g fill="#0f0147" fill-opacity="1"><g transform="translate(289.514221, 190.066676)"><g><path d="M 9.046875 0 L 9.046875 -9.203125 L 0.046875 -27.046875 L 7.109375 -27.046875 L 12.421875 -15.875 L 12.703125 -15.875 L 17.96875 -27.046875 L 24.890625 -27.046875 L 15.875 -9.203125 L 15.875 0 Z M 9.046875 0 "/></g></g></g><g fill="#ff3131" fill-opacity="1"><g transform="translate(142.120366, 216.339507)"><g><path d="M 12.0625 0 L 12.046875 -7.59375 L 8.28125 -1.3125 L 7.34375 -1.3125 L 3.5625 -7.5 L 3.5625 0 L 1.546875 0 L 1.546875 -11.46875 L 3.296875 -11.46875 L 7.84375 -3.859375 L 12.3125 -11.46875 L 14.0625 -11.46875 L 14.078125 0 Z M 12.0625 0 "/></g></g></g><g fill="#ff3131" fill-opacity="1"><g transform="translate(161.034104, 216.339507)"><g><path d="M 8.96875 -2.65625 L 3.25 -2.65625 L 2.109375 0 L -0.078125 0 L 5.078125 -11.46875 L 7.171875 -11.46875 L 12.34375 0 L 10.125 0 Z M 8.265625 -4.328125 L 6.109375 -9.328125 L 3.96875 -4.328125 Z M 8.265625 -4.328125 "/></g></g></g><g fill="#ff3131" fill-opacity="1"><g transform="translate(176.574873, 216.339507)"><g><path d="M 9.03125 0 L 6.703125 -3.359375 C 6.597656 -3.347656 6.445312 -3.34375 6.25 -3.34375 L 3.671875 -3.34375 L 3.671875 0 L 1.546875 0 L 1.546875 -11.46875 L 6.25 -11.46875 C 7.25 -11.46875 8.113281 -11.300781 8.84375 -10.96875 C 9.582031 -10.644531 10.148438 -10.175781 10.546875 -9.5625 C 10.941406 -8.945312 11.140625 -8.222656 11.140625 -7.390625 C 11.140625 -6.523438 10.925781 -5.78125 10.5 -5.15625 C 10.082031 -4.53125 9.476562 -4.066406 8.6875 -3.765625 L 11.328125 0 Z M 8.984375 -7.390625 C 8.984375 -8.117188 8.742188 -8.675781 8.265625 -9.0625 C 7.785156 -9.457031 7.082031 -9.65625 6.15625 -9.65625 L 3.671875 -9.65625 L 3.671875 -5.09375 L 6.15625 -5.09375 C 7.082031 -5.09375 7.785156 -5.289062 8.265625 -5.6875 C 8.742188 -6.082031 8.984375 -6.648438 8.984375 -7.390625 Z M 8.984375 -7.390625 "/></g></g></g><g fill="#ff3131" fill-opacity="1"><g transform="translate(191.820919, 216.339507)"><g><path d="M 3.859375 -9.65625 L 0.0625 -9.65625 L 0.0625 -11.46875 L 9.796875 -11.46875 L 9.796875 -9.65625 L 6 -9.65625 L 6 0 L 3.859375 0 Z M 3.859375 -9.65625 "/></g></g></g></svg>