<svg xmlns="http://www.w3.org/2000/svg" xmlns:xlink="http://www.w3.org/1999/xlink" width="500" zoomAndPan="magnify" viewBox="0 0 375 374.999991" height="500" preserveAspectRatio="xMidYMid meet" version="1.0"><defs><clipPath id="c2397b1113"><path d="M 69.25 55 L 305.5 55 L 305.5 320 L 69.25 320 Z M 69.25 55 " clip-rule="nonzero"/></clipPath></defs><g clip-path="url(#c2397b1113)"><path fill="#ff3131" d="M 76.683594 318.492188 C 74.050781 320.835938 69.554688 319.179688 69.554688 315.863281 L 69.554688 59.136719 C 69.554688 56.882812 71.636719 55.398438 73.789062 55.410156 C 74.804688 55.417969 75.839844 55.757812 76.683594 56.507812 L 126.128906 100.546875 L 184.535156 152.574219 C 184.589844 152.621094 184.636719 152.664062 184.691406 152.707031 L 184.695312 152.710938 L 185.714844 153.628906 L 247.015625 208.230469 C 247.25 208.441406 247.5 208.617188 247.761719 208.761719 C 250.15625 210.117188 253.421875 208.910156 254.039062 206.441406 C 254.105469 206.175781 254.140625 205.894531 254.140625 205.597656 L 254.140625 169.398438 C 254.140625 166.085938 249.648438 164.425781 247.015625 166.769531 L 244.398438 169.101562 L 239.019531 173.890625 L 202.90625 141.464844 L 208.140625 136.804688 L 298.289062 56.507812 C 300.921875 54.164062 305.417969 55.820312 305.417969 59.136719 L 305.417969 315.863281 C 305.417969 318.113281 303.339844 319.601562 301.183594 319.585938 C 300.167969 319.582031 299.132812 319.242188 298.289062 318.492188 L 248.847656 274.449219 L 190.4375 222.425781 C 190.386719 222.378906 190.335938 222.335938 190.285156 222.292969 L 190.277344 222.289062 L 189.257812 221.371094 L 127.957031 166.769531 C 127.722656 166.558594 127.472656 166.382812 127.214844 166.238281 C 124.816406 164.882812 121.550781 166.089844 120.933594 168.554688 C 120.867188 168.824219 120.832031 169.105469 120.832031 169.398438 L 120.832031 205.597656 C 120.832031 208.914062 125.324219 210.574219 127.957031 208.230469 L 130.574219 205.898438 L 135.953125 201.109375 L 172.066406 233.535156 L 166.835938 238.191406 L 76.683594 318.492188 " fill-opacity="1" fill-rule="nonzero"/></g></svg>